Coordinates
version=1
nRows=5
nColumns=40
inDegrees=yes

Units are S.I. units (second, meters, Newtons, ...)
Angles are in degrees.

endheader
time	pelvis_tilt	pelvis_list	pelvis_rotation	pelvis_tx	pelvis_ty	pelvis_tz	hip_flexion_r	hip_adduction_r	hip_rotation_r	knee_angle_r	knee_angle_r_beta	ankle_angle_r	subtalar_angle_r	mtp_angle_r	hip_flexion_l	hip_adduction_l	hip_rotation_l	knee_angle_l	knee_angle_l_beta	ankle_angle_l	subtalar_angle_l	mtp_angle_l	lumbar_extension	lumbar_bending	lumbar_rotation	arm_flex_r	arm_add_r	arm_rot_r	elbow_flex_r	pro_sup_r	wrist_flex_r	wrist_dev_r	arm_flex_l	arm_add_l	arm_rot_l	elbow_flex_l	pro_sup_l	wrist_flex_l	wrist_dev_l
      8.06000000	      0.12983348	     -6.12226649	      1.99381010	      1.06790114	      0.93262413	      0.48765863	      7.78238151	      4.36764521	    -13.62339393	     17.00584573	     17.00584573	     11.15960032	      0.16869017	     -4.20902267	     30.16439497	    -14.87311582	      3.17446593	     70.52167303	     70.52167303	      0.55412235	    -17.77777341	      8.05359478	     -9.86748410	      5.22172668	      1.20386596	     22.44462664	    -21.04647743	     -5.17874506	     73.00605052	     45.57737962	      0.00000000	      0.00000000	      1.77040721	    -10.83869764	     -6.01228913	     26.05764424	     45.74002928	      0.00000000	      0.00000000
      8.07335714	     -0.02626322	     -6.01768994	      2.24960362	      1.06655271	      0.93326853	      0.48847620	      7.22702482	      4.39795623	    -13.87354685	     16.21796925	     16.21796925	     11.14616457	      0.54426398	     -4.14858205	     31.26844811	    -14.75629518	      2.98854306	     68.44536966	     68.44536966	      1.38654486	    -18.19693792	      8.28379274	     -9.82783892	      5.06831074	      1.31918918	     24.40740390	    -21.05031763	     -5.42171796	     74.46765569	     45.54373710	      0.00000000	      0.00000000	      0.75391219	    -10.42395203	     -5.95100394	     25.48149556	     45.72413973	      0.00000000	      0.00000000
      8.08671429	     -0.16501670	     -5.91807237	      2.51350694	      1.06521379	      0.93387142	      0.48920476	      6.62864965	      4.44035457	    -14.13907068	     15.37801625	     15.37801625	     11.12287604	      0.93172408	     -4.12221817	     32.19805839	    -14.64486998	      2.71813109	     66.09523053	     66.09523053	      2.28190198	    -18.48317686	      8.74133861	     -9.84230139	      4.95860831	      1.46633179	     26.33355783	    -21.11608700	     -5.67189937	     76.10235909	     45.50496716	      0.00000000	      0.00000000	     -0.32723019	    -10.02869413	     -5.94001480	     25.18425682	     45.71405673	      0.00000000	      0.00000000
      8.10007143	     -0.46170189	     -5.85206709	      2.75177584	      1.06372628	      0.93402577	      0.48988624	      6.44580529	      4.46720816	    -14.30906461	     14.97511344	     14.97511344	     11.16732939	      0.99151891	     -4.10414875	     33.17229732	    -14.54551634	      2.40969104	     63.48348742	     63.48348742	      3.07205531	    -18.63059808	      8.97065311	     -9.61492006	      4.84219724	      2.03034802	     28.08378356	    -21.61277231	     -5.98131506	     76.92485604	     45.49621317	      0.00000000	      0.00000000	     -1.14721212	     -9.59969154	     -5.92191885	     24.96170407	     45.69747193	      0.00000000	      0.00000000
      8.11342857	     -0.45485400	     -5.72973164	      3.03972352	      1.06247166	      0.93470480	      0.49033802	      5.56403949	      4.51737306	    -14.57715256	     13.88030817	     13.88030817	     11.09356998	      1.51136471	     -4.05777600	     33.58676121	    -14.30427242	      2.11093439	     60.51209249	     60.51209249	      3.95452799	    -18.78058071	      9.85239110	     -9.88709761	      4.72224398	      1.91881017	     30.11227585	    -21.35092050	     -6.20606155	     78.87661866	     45.44747741	      0.00000000	      0.00000000	     -2.30224060	     -9.27891055	     -5.93700945	     24.82029223	     45.68615787	      0.00000000	      0.00000000
